<svg xmlns="http://www.w3.org/2000/svg" viewBox="0 0 30 30"><defs><style>.cls-1{fill:#fff;}.cls-2{fill:#1d1d1b;}.cls-3{fill:none;}</style></defs><g id="Calque_2" data-name="Calque 2"><g id="CURSEUR"><path class="cls-1" d="M14.64,28.29a.7.7,0,0,0,.06.46c.32.6,1.63.47,2.89.31,4.31-.55,6.41-.86,6.67-1.91a.83.83,0,0,0,0-.41c-.47-1.46-1.32-5.14-1.32-5.14l.19-2.22a9.49,9.49,0,0,0,.16-2.44,7.46,7.46,0,0,0-.16-1.25,10.71,10.71,0,0,0-.15-1.6,11.05,11.05,0,0,0-.69-2.4,2.19,2.19,0,0,0-.54-.93,1.68,1.68,0,0,0-.56-.39,1.62,1.62,0,0,0-.63-.15c-.2,0-.24,0-.46,0a2,2,0,0,1-.68-.07,2.7,2.7,0,0,0-.73-.52,2.93,2.93,0,0,0-.44-.18,3.47,3.47,0,0,1-.74.26,3,3,0,0,1-.91.06,1.92,1.92,0,0,1-.53-.12,1.71,1.71,0,0,1-.32-.16c-.25-.16-.28-.25-.52-.42a1,1,0,0,0-.42-.2.83.83,0,0,0-.62.29,1.32,1.32,0,0,1-1,.63c-.45,0-.61-.37-1.4-.52a1.45,1.45,0,0,0-.75,0,1.25,1.25,0,0,0-.56.39c-.24.51-.46,1-.67,1.47a1.92,1.92,0,0,0-.18.71,1.88,1.88,0,0,0,.09.65,6.88,6.88,0,0,0-.9,2,6.8,6.8,0,0,0-.22,2,4.32,4.32,0,0,0,.11.82,4.9,4.9,0,0,0,.43,1.25l1,1.73,1.67,2.12,1.74,2.12a15.77,15.77,0,0,1,.74,2.15C14.45,27.29,14.56,27.81,14.64,28.29Z"/><path class="cls-2" d="M10.27,12.88a6.66,6.66,0,0,0-1,1.9A4.55,4.55,0,0,0,9,16.84,7.26,7.26,0,0,0,11,20.6a20.3,20.3,0,0,1,2.93,3.55,6.54,6.54,0,0,1,.81,4.6c-.7-1.43-1.17-2.75-1.89-4s-1.71-2.3-2.62-3.56a9.79,9.79,0,0,1-1.94-4.28,6.29,6.29,0,0,1,.17-2.41,12.06,12.06,0,0,1,.77-2.26Z"/><path class="cls-1" d="M24.4,27.05s-2-5.41-1.35-7.16,0-7.44-1.08-8.86a2.12,2.12,0,0,0-1-.75c-.59-.18-.8.11-1.41-.06s-.75-.68-1.32-.68c-.36,0-.43.2-1,.27a2.79,2.79,0,0,1-.81,0c-1-.17-1.06-.87-1.65-.85s-.89,1-1.62.94l-.14,0a1.14,1.14,0,0,1-.44-.25,1.85,1.85,0,0,0-1.72-.17c-.25.14-.43.49-.79,1.2a3.07,3.07,0,0,0-.36,1.12,2.53,2.53,0,0,0,0,.61,13.63,13.63,0,0,0,.4,1.9,11.23,11.23,0,0,1,.25,1.5"/><path class="cls-2" d="M24.36,27.07a14.67,14.67,0,0,1-1.78-4.17,7.77,7.77,0,0,1-.29-2.35,2.8,2.8,0,0,1,.1-.68l.14-.5a7.89,7.89,0,0,0,.16-1,17.31,17.31,0,0,0-.26-4.3,10.92,10.92,0,0,0-.56-2,4,4,0,0,0-.4-.83,1.3,1.3,0,0,0-.65-.6.77.77,0,0,0-.43-.05,3,3,0,0,1-.62,0A2,2,0,0,1,18.62,10a.52.52,0,0,0-.7-.09,2.73,2.73,0,0,1-1.22.2,2.21,2.21,0,0,1-1.22-.39c-.36-.26-.57-.53-.73-.49s-.39.22-.67.51a1.46,1.46,0,0,1-.59.4,1.12,1.12,0,0,1-.77-.05,3.67,3.67,0,0,1-.49-.31,1.81,1.81,0,0,0-.43-.14,1.23,1.23,0,0,0-.83.08,3,3,0,0,0-.46.8,4.76,4.76,0,0,0-.36,1,5.89,5.89,0,0,0,.24,2,3.16,3.16,0,0,1-.05,2.3c-.68-.68-.64-1.33-.9-2.07a7.15,7.15,0,0,1-.2-1.14,3.29,3.29,0,0,1,.07-1.28,5.7,5.7,0,0,1,.52-1.08,2.82,2.82,0,0,1,.76-1A2,2,0,0,1,11.93,9a2.35,2.35,0,0,1,.61.22c.27.15.32.25.44.29s.39,0,.63-.2a1.75,1.75,0,0,1,1.12-.7,1.1,1.1,0,0,1,.72.28,4.89,4.89,0,0,0,.4.34,1.54,1.54,0,0,0,.88.28,2,2,0,0,0,.95-.14,1.26,1.26,0,0,1,.69-.13,1.18,1.18,0,0,1,.65.33,1.33,1.33,0,0,0,.81.4,1.71,1.71,0,0,0,.49,0A1.68,1.68,0,0,1,21,10a3,3,0,0,1,1.2.58,3,3,0,0,1,.69,1.09,12.8,12.8,0,0,1,.57,2.25,26.46,26.46,0,0,1,.42,4.55,10.14,10.14,0,0,1-.09,1.2l-.08.32,0,.16,0,.09a1.76,1.76,0,0,0,0,.42,12.51,12.51,0,0,0,.19,2.05c.21,1.42.5,2.87.66,4.37Z"/><rect class="cls-3" width="30" height="30"/></g></g></svg>