<svg xmlns="http://www.w3.org/2000/svg" viewBox="0 0 29.9 29.9"><defs><style>.cls-1,.cls-3{fill:#fff;}.cls-2{fill:#1d1d1b;}.cls-3{stroke:#1d1d1b;stroke-miterlimit:10;stroke-width:0.53px;}.cls-4{fill:none;}</style></defs><g id="Calque_2" data-name="Calque 2"><g id="CURSEUR"><path class="cls-1" d="M14.53,28.24s-.64,1.42,3,.72,7.1-.86,6.63-2.31-1.31-5.12-1.31-5.12l0-2.3L23,15.64l-.84-4s-.69-1.41-1.06-1.41-1.8-.07-1.8-.07l-1.17-.7-1.64.32a3.6,3.6,0,0,1-1.37-.7c-.48-.46-1.2,0-1.2,0s-.56.72-.81.72-1-.26-1.08-.76-1.28-3.36-1.28-3.36L10.26,2.5s-.28-.83-.39-.86S9.45.86,9.17.79,8,.78,8,1.05s-.2,1.53-.2,1.53a26.88,26.88,0,0,0,.31,3.18c.2.9,1.31,5.4,1.31,5.4L9.5,12l-2-1.14-1.11-.2-1,.2-.35.49.8,1.05.84.31.76,1.39,1.13,4.76,1.3,1.76L11.8,22.4l1.73,2.12Z"/><path class="cls-2" d="M9.2,12.79a4.74,4.74,0,0,0-1-1A3.86,3.86,0,0,0,7,11.2a1.35,1.35,0,0,0-.6,0,1.57,1.57,0,0,0-.55.24c-.06,0-.06.07,0,0s0,0,0,0A5.56,5.56,0,0,0,6.4,12a4.78,4.78,0,0,1,1.17,1.24,2.46,2.46,0,0,1,.37.83l.2.77c.28,1,.57,2,.89,3a4.81,4.81,0,0,0,1.42,2.45,24.87,24.87,0,0,1,2.3,2.22,8.12,8.12,0,0,1,1.9,6.16A17.37,17.37,0,0,0,11.8,23.3c-.63-.75-1.43-1.37-2.2-2.2a6,6,0,0,1-1-1.41,6.69,6.69,0,0,1-.52-1.61L7.35,15l-.17-.77a1.51,1.51,0,0,0-.26-.61,3.87,3.87,0,0,0-1-1c-.2-.16-.42-.28-.67-.5a.91.91,0,0,1-.32-.62.86.86,0,0,1,.32-.65,2.2,2.2,0,0,1,.86-.44,2.4,2.4,0,0,1,1-.1,4.62,4.62,0,0,1,1.65.63A7.05,7.05,0,0,1,10.13,12Z"/><path class="cls-1" d="M24.32,27S22.37,21.57,23,19.82,23,12.41,21.9,11a2,2,0,0,0-1-.75c-.58-.18-.79.11-1.41-.06s-.74-.68-1.31-.68c-.36,0-.42.2-1,.27a2.8,2.8,0,0,1-.81,0c-1-.17-1.06-.87-1.64-.85s-.89,1-1.63.94a1.09,1.09,0,0,1-.63-.27,1.12,1.12,0,0,1-.29-.44c-.61-1.71-.54-1.54-1.11-3-.16-.41-.6-3-.71-3.58A2.11,2.11,0,0,0,9.6,1.34a1.59,1.59,0,0,0-1.43.19,1.16,1.16,0,0,0-.28.74,15.9,15.9,0,0,0,.5,4.47s1,3.57,1.12,4.56c0,0,0,.16,0,.35s0,.26.06.4c.16.91.4,2.15,0,2.77-.55.82-.66.79-.69,1.36a2.05,2.05,0,0,0,0,.47"/><path class="cls-2" d="M24.28,27a20.06,20.06,0,0,1-1.34-3.08,11.47,11.47,0,0,1-.69-3.39,2.89,2.89,0,0,1,0-.5l.11-.47a4.63,4.63,0,0,0,.12-.7c.05-.51,0-1,0-1.57a26.54,26.54,0,0,0-.26-3.2A15.38,15.38,0,0,0,22,12.51a3.66,3.66,0,0,0-.58-1.29,1.83,1.83,0,0,0-.49-.39,1.94,1.94,0,0,0-.51-.2,4.47,4.47,0,0,1-.94-.12,3.35,3.35,0,0,1-.92-.37c-.29-.17-.25-.09-.4-.11s-.48.11-.79.08a5,5,0,0,1-1.87-.28c-.3-.14-.58-.37-.68-.4a.3.3,0,0,0-.23,0c-.16.08-.36.28-.65.48a1.31,1.31,0,0,1-1.1.19A1.35,1.35,0,0,1,12,9.49a7.31,7.31,0,0,1-.31-.82L11.1,7.12l-.31-.77a5,5,0,0,1-.22-.84l-.32-1.64-.15-.81a3.37,3.37,0,0,0-.17-.74,2.24,2.24,0,0,0-.38-.61l-.08-.08h0l-.08,0a2.19,2.19,0,0,0-.36,0c-.49,0-.77.18-.8.64a12.27,12.27,0,0,0,0,1.6,34.53,34.53,0,0,0,1.49,6.39,12.68,12.68,0,0,1,.33,1.65,10.74,10.74,0,0,1,.24,1.69,3.52,3.52,0,0,1-.08.95A1.63,1.63,0,0,1,10,15a3.93,3.93,0,0,1-.27.35c-.18.23-.4.41-.49.53a4.31,4.31,0,0,0-.3.75,1.51,1.51,0,0,1-.28-.9A2.71,2.71,0,0,1,9,14.87l.2-.33a.73.73,0,0,0,.08-.25,2.59,2.59,0,0,0,0-.69c0-.51-.13-1-.21-1.59a16,16,0,0,0-.23-1.61c-.21-1.07-.47-2.14-.74-3.21a17.88,17.88,0,0,1-.57-3.32,12.19,12.19,0,0,1,0-1.71,1.3,1.3,0,0,1,.48-1A1.49,1.49,0,0,1,9,.93,2.31,2.31,0,0,1,9.5,1l.12,0,.06,0a.31.31,0,0,1,.12.05,1.25,1.25,0,0,1,.23.2,3,3,0,0,1,.48.8,3.91,3.91,0,0,1,.21.87l.15.81.3,1.62a4.82,4.82,0,0,0,.19.75l.3.77.57,1.57a6.83,6.83,0,0,0,.28.72A.69.69,0,0,0,13,9.5c.4.12.43-.29,1-.84a1.14,1.14,0,0,1,1.32-.1c.37.26.44.48.61.62a1.21,1.21,0,0,0,1.33.23c.25-.08.25-.28.79-.4a1.08,1.08,0,0,1,.67.1,1.18,1.18,0,0,1,.41.38.82.82,0,0,0,.52.4c.23.06.37,0,.7-.13a1.53,1.53,0,0,1,1.09.12,2.59,2.59,0,0,1,.79.64A4.86,4.86,0,0,1,23,12.19a17,17,0,0,1,.42,1.67,20.14,20.14,0,0,1,.41,3.38A11.38,11.38,0,0,1,23.8,19a7,7,0,0,1-.19.93c-.06.19-.05.21-.09.32s0,.22,0,.33a14.4,14.4,0,0,0,.3,3.13L24.37,27Z"/><path class="cls-3" d="M9,3a1,1,0,0,0,.66-.31,1.1,1.1,0,0,0,.14-.81,1.18,1.18,0,0,0-.26-.83A.92.92,0,0,0,9,.77,1,1,0,0,0,8.21,1C8,1.29,8,1.64,8,2.13s0,.51.17.67A1,1,0,0,0,9,3Z"/><path class="cls-3" d="M6.72,12.76A1.06,1.06,0,0,0,7,11.88c-.06-.36-.36-.54-.68-.74a.93.93,0,0,0-.71-.22.57.57,0,0,0-.37.26c-.12.28.16.63.31.82A2.43,2.43,0,0,0,6.72,12.76Z"/><rect class="cls-4" width="29.9" height="29.9"/></g></g></svg>